<?xml version="1.0" encoding="utf-8"?>
<!-- Generator: Adobe Illustrator 26.2.1, SVG Export Plug-In . SVG Version: 6.00 Build 0)  -->
<svg version="1.1" id="Layer_1" xmlns="http://www.w3.org/2000/svg" xmlns:xlink="http://www.w3.org/1999/xlink" x="0px" y="0px"
	 viewBox="0 0 40 40" style="enable-background:new 0 0 40 40;" xml:space="preserve">
<style type="text/css">
	.st0{fill:#FCE3E3;}
</style>
<path class="st0" d="M9.9,35.4v-5.3H4.6V28h5.3v-7H4.6V19h5.3v-7H4.6V9.9h5.3V4.6H12v5.3h7V4.6H21v5.3h7V4.6h2.1v5.3h5.3V12h-5.3v7
	h5.3V21h-5.3v7h5.3v2.1h-5.3v5.3H28v-5.3h-7v5.3H19v-5.3h-7v5.3H9.9z M12,19h7v-7h-7V19z M12,28h7v-7h-7V28z M21,28h7v-7h-7V28z
	 M21,19h7v-7h-7V19z"/>
</svg>
